<svg xmlns="http://www.w3.org/2000/svg" xmlns:xlink="http://www.w3.org/1999/xlink" width="1048" zoomAndPan="magnify" viewBox="0 0 786 785.999994" height="1048" preserveAspectRatio="xMidYMid meet" version="1.0"><defs><g/></defs><path fill="#ffc536" d="M 325.605469 504.171875 C 317.109375 512.675781 286.152344 521.828125 268.816406 526.445312 C 263.394531 527.890625 258.441406 522.933594 259.890625 517.503906 C 264.511719 500.160156 273.667969 469.195312 282.164062 460.691406 C 294.160156 448.683594 313.613281 448.65625 325.605469 460.660156 C 337.628906 472.695312 337.601562 492.164062 325.605469 504.171875 Z M 325.605469 504.171875 " fill-opacity="1" fill-rule="nonzero"/><path fill="#f34624" d="M 325.613281 485.46875 C 321.226562 489.859375 306.351562 494.550781 296.242188 497.351562 C 291.800781 498.582031 287.734375 494.511719 288.964844 490.066406 C 291.769531 479.949219 296.464844 465.070312 300.847656 460.683594 C 307.6875 453.839844 318.773438 453.824219 325.613281 460.667969 C 332.464844 467.527344 332.449219 478.625 325.613281 485.46875 Z M 325.613281 485.46875 " fill-opacity="1" fill-rule="nonzero"/><path fill="#2c3642" d="M 360.246094 472.800781 L 345.5 487.558594 C 343.007812 490.054688 338.960938 490.054688 336.464844 487.558594 L 298.761719 449.820312 C 296.269531 447.324219 296.269531 443.273438 298.761719 440.777344 L 313.507812 426.019531 Z M 360.246094 472.800781 " fill-opacity="1" fill-rule="nonzero"/><path fill="#f34624" d="M 431.089844 513.03125 C 410.238281 530.160156 381.324219 542.203125 352.203125 546.21875 C 345.878906 547.089844 341.691406 540.066406 345.347656 534.828125 C 360.914062 512.53125 370.292969 487.980469 373.125 464.042969 L 452.027344 405.996094 C 469.359375 443.171875 468.671875 482.191406 431.089844 513.03125 Z M 431.089844 513.03125 " fill-opacity="1" fill-rule="nonzero"/><path fill="#f34624" d="M 378.488281 332.390625 L 320.492188 411.367188 C 296.601562 414.222656 272.058594 423.59375 249.773438 439.171875 C 244.542969 442.828125 237.527344 438.636719 238.398438 432.308594 C 242.414062 403.167969 254.460938 374.242188 271.550781 353.347656 C 302.363281 315.734375 341.375 315.074219 378.488281 332.390625 Z M 378.488281 332.390625 " fill-opacity="1" fill-rule="nonzero"/><path fill="#ededed" d="M 467.375 418.761719 L 368.148438 482.558594 C 363.089844 485.8125 356.453125 485.097656 352.203125 480.84375 L 305.453125 434.050781 C 301.207031 429.796875 300.492188 423.15625 303.738281 418.09375 L 367.480469 318.777344 C 373.988281 308.648438 381.488281 299.332031 389.753906 291.054688 C 424.179688 256.597656 472.367188 238.753906 521.402344 243.03125 C 532.976562 244.039062 542.089844 253.195312 543.085938 264.78125 C 548.3125 325.609375 519.59375 385.171875 467.375 418.761719 Z M 467.375 418.761719 " fill-opacity="1" fill-rule="nonzero"/><path fill="#f34624" d="M 535.636719 329.886719 C 542.316406 309.160156 545 287.058594 543.082031 264.773438 C 542.089844 253.191406 532.976562 244.039062 521.40625 243.03125 C 499.109375 241.085938 477 243.761719 456.265625 250.445312 Z M 535.636719 329.886719 " fill-opacity="1" fill-rule="nonzero"/><path fill="#2c3642" d="M 471.8125 373.816406 C 455.367188 390.277344 428.78125 390.277344 412.386719 373.867188 C 395.9375 357.402344 395.9375 330.796875 412.386719 314.335938 C 428.78125 297.925781 455.367188 297.925781 471.8125 314.386719 C 488.207031 330.796875 488.207031 357.402344 471.8125 373.816406 Z M 471.8125 373.816406 " fill-opacity="1" fill-rule="nonzero"/><path fill="#00aeff" d="M 474.148438 340.214844 C 474.277344 341.265625 474.351562 342.320312 474.375 343.375 C 474.398438 344.433594 474.371094 345.488281 474.292969 346.542969 C 474.210938 347.601562 474.082031 348.648438 473.898438 349.691406 C 473.714844 350.730469 473.480469 351.761719 473.195312 352.78125 C 472.914062 353.800781 472.578125 354.800781 472.199219 355.789062 C 471.816406 356.773438 471.386719 357.738281 470.910156 358.683594 C 470.429688 359.625 469.910156 360.542969 469.339844 361.4375 C 468.773438 362.328125 468.164062 363.191406 467.511719 364.023438 C 466.859375 364.855469 466.171875 365.65625 465.441406 366.417969 C 464.710938 367.183594 463.945312 367.910156 463.140625 368.601562 C 462.339844 369.289062 461.507812 369.9375 460.640625 370.546875 C 459.777344 371.152344 458.882812 371.714844 457.960938 372.234375 C 457.042969 372.753906 456.097656 373.226562 455.132812 373.652344 C 454.164062 374.082031 453.179688 374.457031 452.175781 374.789062 C 451.171875 375.117188 450.152344 375.398438 449.121094 375.628906 C 448.089844 375.855469 447.050781 376.035156 446 376.164062 C 444.949219 376.289062 443.898438 376.367188 442.839844 376.390625 C 441.785156 376.414062 440.730469 376.386719 439.675781 376.304688 C 438.621094 376.226562 437.574219 376.09375 436.535156 375.910156 C 435.492188 375.726562 434.464844 375.492188 433.445312 375.210938 C 432.429688 374.925781 431.425781 374.589844 430.441406 374.207031 C 429.457031 373.824219 428.492188 373.394531 427.550781 372.917969 C 426.605469 372.441406 425.6875 371.917969 424.796875 371.351562 C 423.90625 370.78125 423.042969 370.171875 422.210938 369.519531 C 421.378906 368.867188 420.582031 368.175781 419.820312 367.445312 C 419.054688 366.714844 418.328125 365.949219 417.640625 365.144531 C 416.953125 364.34375 416.304688 363.507812 415.699219 362.640625 C 415.089844 361.777344 414.527344 360.882812 414.007812 359.960938 C 413.492188 359.039062 413.019531 358.09375 412.589844 357.128906 C 412.164062 356.160156 411.789062 355.171875 411.457031 354.167969 C 411.128906 353.164062 410.847656 352.144531 410.621094 351.113281 C 410.390625 350.078125 410.210938 349.039062 410.085938 347.988281 C 409.957031 346.9375 409.882812 345.882812 409.859375 344.828125 C 409.835938 343.769531 409.863281 342.710938 409.941406 341.65625 C 410.023438 340.601562 410.15625 339.554688 410.335938 338.511719 C 410.519531 337.472656 410.753906 336.441406 411.039062 335.421875 C 411.320312 334.402344 411.65625 333.402344 412.039062 332.414062 C 412.417969 331.429688 412.847656 330.464844 413.328125 329.519531 C 413.804688 328.578125 414.324219 327.660156 414.894531 326.765625 C 415.460938 325.875 416.070312 325.011719 416.722656 324.179688 C 417.375 323.347656 418.066406 322.546875 418.796875 321.78125 C 419.523438 321.019531 420.292969 320.292969 421.09375 319.601562 C 421.894531 318.914062 422.726562 318.265625 423.59375 317.65625 C 424.457031 317.050781 425.351562 316.488281 426.273438 315.96875 C 427.191406 315.449219 428.136719 314.976562 429.105469 314.550781 C 430.070312 314.121094 431.054688 313.742188 432.058594 313.414062 C 433.0625 313.085938 434.082031 312.804688 435.113281 312.574219 C 436.144531 312.347656 437.1875 312.167969 438.234375 312.039062 C 439.285156 311.914062 440.335938 311.835938 441.394531 311.8125 C 442.449219 311.789062 443.503906 311.816406 444.558594 311.898438 C 445.613281 311.976562 446.660156 312.109375 447.699219 312.292969 C 448.742188 312.476562 449.769531 312.710938 450.789062 312.992188 C 451.804688 313.277344 452.808594 313.613281 453.792969 313.992188 C 454.777344 314.375 455.742188 314.808594 456.683594 315.285156 C 457.628906 315.761719 458.546875 316.285156 459.4375 316.851562 C 460.328125 317.421875 461.191406 318.03125 462.023438 318.683594 C 462.855469 319.335938 463.652344 320.027344 464.414062 320.757812 C 465.179688 321.488281 465.90625 322.253906 466.59375 323.058594 C 467.28125 323.859375 467.929688 324.695312 468.539062 325.5625 C 469.144531 326.425781 469.707031 327.320312 470.226562 328.242188 C 470.746094 329.164062 471.21875 330.109375 471.644531 331.074219 C 472.070312 332.042969 472.449219 333.03125 472.777344 334.035156 C 473.105469 335.039062 473.386719 336.058594 473.613281 337.089844 C 473.84375 338.125 474.023438 339.164062 474.148438 340.214844 Z M 474.148438 340.214844 " fill-opacity="1" fill-rule="nonzero"/><g fill="#000000" fill-opacity="1"><g transform="translate(365.843093, 434.87372)"><g><path d="M -11.515625 -16.5625 L -7.359375 -20.390625 C -5.398438 -22.179688 -3.71875 -23.1875 -2.3125 -23.40625 C -0.90625 -23.625 0.375 -23.101562 1.53125 -21.84375 C 2.332031 -20.976562 2.75 -20.039062 2.78125 -19.03125 C 2.820312 -18.019531 2.453125 -17 1.671875 -15.96875 L 1.765625 -15.859375 C 4.347656 -17.523438 6.539062 -17.378906 8.34375 -15.421875 C 9.550781 -14.109375 10.050781 -12.671875 9.84375 -11.109375 C 9.644531 -9.554688 8.75 -8.046875 7.15625 -6.578125 L 2.015625 -1.859375 Z M -4.015625 -11.84375 L -1.203125 -14.4375 C 0.00390625 -15.539062 0.695312 -16.523438 0.875 -17.390625 C 1.0625 -18.265625 0.738281 -19.148438 -0.09375 -20.046875 C -0.851562 -20.867188 -1.695312 -21.191406 -2.625 -21.015625 C -3.550781 -20.847656 -4.660156 -20.171875 -5.953125 -18.984375 L -8.453125 -16.671875 Z M -2.671875 -10.40625 L 2.390625 -4.890625 L 5.453125 -7.71875 C 6.640625 -8.800781 7.320312 -9.851562 7.5 -10.875 C 7.675781 -11.894531 7.3125 -12.894531 6.40625 -13.875 C 5.5625 -14.78125 4.640625 -15.164062 3.640625 -15.03125 C 2.640625 -14.894531 1.507812 -14.25 0.25 -13.09375 Z M -2.671875 -10.40625 "/></g></g></g><g fill="#000000" fill-opacity="1"><g transform="translate(379.187835, 422.586355)"><g><path d="M -10.140625 -11.03125 L -8.34375 -12.6875 L -0.125 -8.625 C 1.71875 -7.6875 2.992188 -6.953125 3.703125 -6.421875 L 3.78125 -6.5 C 3.5625 -6.925781 3.207031 -7.675781 2.71875 -8.75 C 2.226562 -9.832031 0.796875 -13.21875 -1.578125 -18.90625 L 0.203125 -20.546875 L 7.03125 -3.640625 C 7.707031 -1.972656 7.96875 -0.59375 7.8125 0.5 C 7.664062 1.601562 7.140625 2.578125 6.234375 3.421875 C 5.722656 3.878906 5.164062 4.285156 4.5625 4.640625 L 3.328125 3.296875 C 3.773438 3.035156 4.226562 2.691406 4.6875 2.265625 C 5.820312 1.210938 6.039062 -0.179688 5.34375 -1.921875 L 4.515625 -4.046875 Z M -10.140625 -11.03125 "/></g></g></g><g fill="#000000" fill-opacity="1"><g transform="translate(389.565958, 413.030548)"><g><path d="M -11.515625 -16.5625 L -7.359375 -20.390625 C -5.398438 -22.179688 -3.71875 -23.1875 -2.3125 -23.40625 C -0.90625 -23.625 0.375 -23.101562 1.53125 -21.84375 C 2.332031 -20.976562 2.75 -20.039062 2.78125 -19.03125 C 2.820312 -18.019531 2.453125 -17 1.671875 -15.96875 L 1.765625 -15.859375 C 4.347656 -17.523438 6.539062 -17.378906 8.34375 -15.421875 C 9.550781 -14.109375 10.050781 -12.671875 9.84375 -11.109375 C 9.644531 -9.554688 8.75 -8.046875 7.15625 -6.578125 L 2.015625 -1.859375 Z M -4.015625 -11.84375 L -1.203125 -14.4375 C 0.00390625 -15.539062 0.695312 -16.523438 0.875 -17.390625 C 1.0625 -18.265625 0.738281 -19.148438 -0.09375 -20.046875 C -0.851562 -20.867188 -1.695312 -21.191406 -2.625 -21.015625 C -3.550781 -20.847656 -4.660156 -20.171875 -5.953125 -18.984375 L -8.453125 -16.671875 Z M -2.671875 -10.40625 L 2.390625 -4.890625 L 5.453125 -7.71875 C 6.640625 -8.800781 7.320312 -9.851562 7.5 -10.875 C 7.675781 -11.894531 7.3125 -12.894531 6.40625 -13.875 C 5.5625 -14.78125 4.640625 -15.164062 3.640625 -15.03125 C 2.640625 -14.894531 1.507812 -14.25 0.25 -13.09375 Z M -2.671875 -10.40625 "/></g></g></g><g fill="#000000" fill-opacity="1"><g transform="translate(402.9107, 400.743184)"><g><path d="M -10.140625 -11.03125 L -8.34375 -12.6875 L -0.125 -8.625 C 1.71875 -7.6875 2.992188 -6.953125 3.703125 -6.421875 L 3.78125 -6.5 C 3.5625 -6.925781 3.207031 -7.675781 2.71875 -8.75 C 2.226562 -9.832031 0.796875 -13.21875 -1.578125 -18.90625 L 0.203125 -20.546875 L 7.03125 -3.640625 C 7.707031 -1.972656 7.96875 -0.59375 7.8125 0.5 C 7.664062 1.601562 7.140625 2.578125 6.234375 3.421875 C 5.722656 3.878906 5.164062 4.285156 4.5625 4.640625 L 3.328125 3.296875 C 3.773438 3.035156 4.226562 2.691406 4.6875 2.265625 C 5.820312 1.210938 6.039062 -0.179688 5.34375 -1.921875 L 4.515625 -4.046875 Z M -10.140625 -11.03125 "/></g></g></g></svg>